<svg xmlns="http://www.w3.org/2000/svg" width="512" height="512" viewBox="0 0 512 512">
  <defs>
    <linearGradient id="g" x1="0" y1="0" x2="1" y2="1">
      <stop offset="0" stop-color="#6d28d9" />
      <stop offset="1" stop-color="#3b82f6" />
    </linearGradient>
  </defs>
  <rect width="512" height="512" rx="112" fill="url(#g)" />
  <rect x="86" y="86" width="340" height="340" rx="92" fill="rgba(255,255,255,0.10)" />
  <path
    d="M188 162h128c44 0 76 26 76 64c0 22-11 40-30 50c25 9 40 29 40 56c0 44-36 74-90 74H188V162zm74 58v44h54c18 0 30-9 30-22s-12-22-30-22h-54zm0 98v52h60c22 0 36-11 36-26s-14-26-36-26h-60z"
    fill="#fff" />
</svg>

